<svg xmlns="http://www.w3.org/2000/svg" width="120.000000" height="120.000000" viewBox="-10.000000 -10.000000 120.000000 120.000000">
  <g stroke="black" stroke-width="1">
    <polygon points="69.000000,61.799999 60.000000,60.000000 61.799999,38.200001" fill="#99c18e" fill-opacity="0.6"/>
    <polygon points="80.900002,100.000000 60.000000,60.000000 69.000000,61.799999" fill="#dab4b6" fill-opacity="0.6"/>
    <polygon points="50.000000,76.400002 60.000000,60.000000 80.900002,100.000000" fill="#831ab2" fill-opacity="0.6"/>
    <polygon points="50.000000,76.400002 40.000000,60.000000 60.000000,60.000000" fill="#90f6fa" fill-opacity="0.6"/>
    <polygon points="40.000000,60.000000 38.200001,38.200001 40.000000,40.000000" fill="#42ed29" fill-opacity="0.6"/>
    <polygon points="40.000000,60.000000 31.000000,61.799999 38.200001,38.200001" fill="#c25e8f" fill-opacity="0.6"/>
    <polygon points="50.000000,76.400002 31.000000,61.799999 40.000000,60.000000" fill="#aa34dc" fill-opacity="0.6"/>
    <polygon points="31.000000,61.799999 50.000000,76.400002 19.100000,100.000000" fill="#b992ba" fill-opacity="0.6"/>
    <polygon points="100.000000,38.200001 69.000000,61.799999 61.799999,38.200001" fill="#cefe2b" fill-opacity="0.6"/>
    <polygon points="60.000000,40.000000 61.799999,38.200001 60.000000,60.000000" fill="#4d85ba" fill-opacity="0.6"/>
    <polygon points="60.000000,40.000000 50.000000,0.000000 61.799999,38.200001" fill="#b28115" fill-opacity="0.6"/>
    <polygon points="40.000000,40.000000 50.000000,0.000000 60.000000,40.000000" fill="#c6fdc5" fill-opacity="0.6"/>
    <polygon points="50.000000,0.000000 40.000000,40.000000 38.200001,38.200001" fill="#c91e5f" fill-opacity="0.6"/>
    <polygon points="38.200001,38.200001 31.000000,61.799999 0.000000,38.200001" fill="#eac8ba" fill-opacity="0.6"/>
  </g>
  <g stroke="blue" stroke-width="2" fill="none">
    <path d="M 50.000000 0.000000 L 61.799999 38.200001 L 100.000000 38.200001 L 69.000000 61.799999 L 80.900002 100.000000 L 50.000000 76.400002 L 19.100000 100.000000 L 31.000000 61.799999 L 0.000000 38.200001 L 38.200001 38.200001 Z"/>
    <path d="M 40.000000 40.000000 L 60.000000 40.000000 L 60.000000 60.000000 L 40.000000 60.000000 Z"/>
  </g>
</svg>
