<svg xmlns="http://www.w3.org/2000/svg" width="120.000000" height="120.000000" viewBox="-10.000000 -10.000000 120.000000 120.000000">
  <g stroke="black" stroke-width="1">
    <polygon points="100.000000,100.000000 75.000000,75.000000 100.000000,0.000000" fill="#372706" fill-opacity="0.6"/>
    <polygon points="100.000000,100.000000 25.000000,75.000000 75.000000,75.000000" fill="#16055a" fill-opacity="0.6"/>
    <polygon points="25.000000,75.000000 0.000000,100.000000 25.000000,25.000000" fill="#66d370" fill-opacity="0.6"/>
    <polygon points="0.000000,100.000000 25.000000,75.000000 100.000000,100.000000" fill="#4d7e46" fill-opacity="0.6"/>
    <polygon points="75.000000,25.000000 100.000000,0.000000 75.000000,75.000000" fill="#59d096" fill-opacity="0.6"/>
    <polygon points="25.000000,25.000000 100.000000,0.000000 75.000000,25.000000" fill="#7e8edf" fill-opacity="0.6"/>
    <polygon points="25.000000,25.000000 0.000000,0.000000 100.000000,0.000000" fill="#db8ab4" fill-opacity="0.6"/>
    <polygon points="0.000000,0.000000 25.000000,25.000000 0.000000,100.000000" fill="#a866bd" fill-opacity="0.6"/>
  </g>
  <g stroke="blue" stroke-width="2" fill="none">
    <path d="M 0.000000 0.000000 L 100.000000 0.000000 L 100.000000 100.000000 L 0.000000 100.000000 Z"/>
    <path d="M 25.000000 25.000000 L 75.000000 25.000000 L 75.000000 75.000000 L 25.000000 75.000000 Z"/>
  </g>
</svg>
