<svg xmlns="http://www.w3.org/2000/svg" width="146.265198" height="198.306229" viewBox="-0.598872 2.145781 146.265198 198.306229">
  <g stroke="black" stroke-width="1">
    <polygon points="120.682655,117.929291 118.778717,117.615646 118.814835,117.457047" fill="#ca9669" fill-opacity="0.6"/>
    <polygon points="118.814835,117.457047 130.743500,37.601929 135.666336,43.440456" fill="#f864a6" fill-opacity="0.6"/>
    <polygon points="118.814835,117.457047 108.894745,20.338795 130.743500,37.601929" fill="#b1e6e6" fill-opacity="0.6"/>
    <polygon points="108.894745,20.338795 95.935799,32.164993 108.877167,12.145781" fill="#1c988b" fill-opacity="0.6"/>
    <polygon points="118.814835,117.457047 95.935799,32.164993 108.894745,20.338795" fill="#c3f37f" fill-opacity="0.6"/>
    <polygon points="68.000107,104.609642 95.935799,32.164993 118.814835,117.457047" fill="#3e753b" fill-opacity="0.6"/>
    <polygon points="65.681183,109.356171 95.935799,32.164993 68.000107,104.609642" fill="#e8aa2e" fill-opacity="0.6"/>
    <polygon points="46.046471,158.995422 95.935799,32.164993 65.681183,109.356171" fill="#d1f0b1" fill-opacity="0.6"/>
    <polygon points="33.675533,125.066864 95.935799,32.164993 46.046471,158.995422" fill="#f0bdf5" fill-opacity="0.6"/>
    <polygon points="26.292141,124.831161 95.935799,32.164993 33.675533,125.066864" fill="#dc25e6" fill-opacity="0.6"/>
    <polygon points="95.935799,32.164993 26.292141,124.831161 10.948956,80.613869" fill="#285ed1" fill-opacity="0.6"/>
    <polygon points="33.675533,125.066864 9.401128,131.634918 26.292141,124.831161" fill="#c30701" fill-opacity="0.6"/>
    <polygon points="118.778717,117.615646 114.341728,124.430695 116.795525,117.288948" fill="#77a7f3" fill-opacity="0.6"/>
    <polygon points="102.195930,190.452011 114.341728,124.430695 118.778717,117.615646" fill="#f193a9" fill-opacity="0.6"/>
    <polygon points="102.195930,190.452011 99.264694,131.830780 114.341728,124.430695" fill="#ffbc91" fill-opacity="0.6"/>
    <polygon points="102.195930,190.452011 93.715187,127.278198 99.264694,131.830780" fill="#bf592e" fill-opacity="0.6"/>
    <polygon points="102.195930,190.452011 65.681183,109.356171 93.715187,127.278198" fill="#f35b1f" fill-opacity="0.6"/>
    <polygon points="102.195930,190.452011 46.046471,158.995422 65.681183,109.356171" fill="#9a3fc6" fill-opacity="0.6"/>
    <polygon points="46.046471,158.995422 102.195930,190.452011 37.770317,168.497284" fill="#9e4f29" fill-opacity="0.6"/>
    <polygon points="116.795525,117.288948 114.341728,124.430695 112.825562,121.506371" fill="#8f59d8" fill-opacity="0.6"/>
  </g>
  <g stroke="blue" stroke-width="2" fill="none">
    <path d="M 102.195930 190.452011 L 37.770317 168.497284 L 46.046471 158.995422 L 33.675533 125.066864 L 9.401128 131.634918 L 26.292141 124.831161 L 10.948956 80.613869 L 95.935799 32.164993 L 108.877167 12.145781 L 108.894745 20.338795 L 130.743500 37.601929 L 135.666336 43.440456 Z"/>
    <path d="M 120.682655 117.929291 L 116.795525 117.288948 L 112.825562 121.506371 L 114.341728 124.430695 L 99.264694 131.830780 L 93.715187 127.278198 L 65.681183 109.356171 L 68.000107 104.609642 Z"/>
  </g>
</svg>
